<svg id="Layer_1" enable-background="new 0 0 512.002 512.002" height="512" viewBox="0 0 512.002 512.002" width="512" xmlns="http://www.w3.org/2000/svg"><g><path fill="#ffffff" d="m352.071 247.41c-26.25-25.9-61.01-39.9-97.95-39.4-74.5 1-135.02 62.46-134.91 136.99.06 41.54 18.67 80.32 51.07 106.4 8.47 6.81 13.32 16.82 13.32 27.44v3.69c0 26.547 32.714 39.597 50.93 20.16 11.644 12.424 31.317 12.402 42.94 0 18.221 19.442 50.93 6.376 50.93-20.16v-3.69c0-10.61 4.89-20.64 13.42-27.52 63.471-51.189 68.6-146.337 10.25-203.91zm-155.55 127.2c-18.44 0-33.39-14.95-33.39-33.39s14.95-33.39 33.39-33.39 33.39 14.95 33.39 33.39-14.95 33.39-33.39 33.39zm73.79 41.74c-3.95 1.958-8.749.381-10.73-3.58l-.898-1.793c-1.106-2.209-4.259-2.209-5.365 0l-.898 1.793c-1.97 3.95-6.78 5.55-10.73 3.58-3.95-1.98-5.55-6.78-3.58-10.74l10.73-21.46c2.952-5.883 11.367-5.885 14.32 0l10.73 21.46c1.971 3.96.371 8.76-3.579 10.74zm44.12-41.74c-18.44 0-33.39-14.95-33.39-33.39s14.95-33.39 33.39-33.39c18.45 0 33.4 14.95 33.4 33.39s-14.95 33.39-33.4 33.39z"/><path d="m464.001 32h-40v-8c0-13.23-10.77-24-24-24s-24 10.77-24 24v8h-240v-8c0-13.23-10.77-24-24-24s-24 10.77-24 24v8h-40c-17.65 0-32 14.35-32 32v336c0 17.65 14.35 32 32 32h72c4.42 0 8-3.58 8-8s-3.58-8-8-8h-72c-8.82 0-16-7.18-16-16v-272h448v272c0 8.82-7.18 16-16 16h-72c-4.42 0-8 3.58-8 8s3.58 8 8 8h72c17.65 0 32-14.35 32-32 0-14.641 0-319.924 0-336 0-17.65-14.35-32-32-32zm-344 32c0 4.41-3.59 8-8 8s-8-3.59-8-8c0-13.903 0-26.139 0-40 0-4.41 3.59-8 8-8s8 3.59 8 8zm288 0c0 4.41-3.59 8-8 8s-8-3.59-8-8c0-13.903 0-26.139 0-40 0-4.41 3.59-8 8-8s8 3.59 8 8z" fill="#ffffff"/></g></svg>