<svg width="85" height="160" xmlns="http://www.w3.org/2000/svg" xmlns:xlink="http://www.w3.org/1999/xlink" overflow="hidden"><defs><clipPath id="clip0"><rect x="772" y="317" width="85" height="160"/></clipPath></defs><g clip-path="url(#clip0)" transform="translate(-772 -317)"><path d="M801.712 370 827.288 370C830.353 370 832.837 372.496 832.837 375.574L832.837 375.574C832.837 378.653 830.352 381.148 827.288 381.148L826.323 381.148 826.323 395.555 830.654 396.906C845.549 403.234 856 418.048 856 435.315 856 458.337 837.42 477 814.5 477 791.58 477 773 458.337 773 435.315 773 418.048 783.451 403.234 798.346 396.906L802.677 395.555 802.677 381.148 801.712 381.148C799.414 381.148 797.441 379.745 796.599 377.744L796.163 375.574 796.599 373.404C797.441 371.404 799.414 370 801.712 370Z" fill="#7F7F7F" fill-rule="evenodd"/><path d="M779.299 433.076C791.861 433.071 799.584 417.819 818.847 435.664 836.244 440.379 838.75 433.938 848.701 433.076L849 436.036C849 455.346 833.33 471 814 471 794.67 471 779 455.346 779 436.036L779.299 433.076Z" fill="#F8126A" fill-rule="evenodd"/><path d="M792 323.5C792 320.462 794.462 318 797.5 318 800.538 318 803 320.462 803 323.5 803 326.538 800.538 329 797.5 329 794.462 329 792 326.538 792 323.5Z" fill="#F8126A" fill-rule="evenodd"/><path d="M822 336C822 332.134 825.134 329 829 329 832.866 329 836 332.134 836 336 836 339.866 832.866 343 829 343 825.134 343 822 339.866 822 336Z" fill="#F8126A" fill-rule="evenodd"/><path d="M808 352.5C808 350.567 809.567 349 811.5 349 813.433 349 815 350.567 815 352.5 815 354.433 813.433 356 811.5 356 809.567 356 808 354.433 808 352.5Z" fill="#F8126A" fill-rule="evenodd"/><path d="M796 438.5C796 436.567 797.567 435 799.5 435 801.433 435 803 436.567 803 438.5 803 440.433 801.433 442 799.5 442 797.567 442 796 440.433 796 438.5Z" fill="#7F7F7F" fill-rule="evenodd"/><path d="M814 447C814 445.895 814.672 445 815.5 445 816.328 445 817 445.895 817 447 817 448.105 816.328 449 815.5 449 814.672 449 814 448.105 814 447Z" fill="#7F7F7F" fill-rule="evenodd"/><path d="M801.163 370 808 370 808 395.851 801.989 400.891C793.335 409.685 787.982 421.833 787.982 435.252 787.982 448.672 793.335 460.82 801.989 469.614L808 474.654 808 475 797.861 472.92C783.251 466.641 773 451.941 773 434.808 773 417.676 783.251 402.976 797.861 396.697L802.109 395.357 802.109 381.062 801.163 381.062C798.908 381.062 796.973 379.669 796.147 377.684L795.719 375.531 796.147 373.378C796.973 371.393 798.908 370 801.163 370Z" fill="#000000" fill-rule="evenodd" fill-opacity="0.501961"/></g></svg>