<svg width="217" height="270" xmlns="http://www.w3.org/2000/svg" xmlns:xlink="http://www.w3.org/1999/xlink" overflow="hidden"><defs><clipPath id="clip0"><rect x="318" y="165" width="217" height="270"/></clipPath></defs><g clip-path="url(#clip0)" transform="translate(-318 -165)"><path d="M427 165C486.647 165 535 213.353 535 273 535 299.095 525.745 323.029 510.338 341.698L506.747 345.649 485.336 314.622 486.549 313.152C494.292 301.69 498.813 287.873 498.813 273 498.813 233.339 466.661 201.187 427 201.187 387.338 201.187 355.186 233.339 355.186 273 355.186 312.661 387.338 344.813 427 344.813 431.958 344.813 436.798 344.311 441.473 343.354L453.423 339.645 474.343 369.958 469.038 372.513C456.118 377.978 441.912 381 427 381 367.353 381 319 332.647 319 273 319 213.353 367.353 165 427 165Z" fill="#ff0576" fill-rule="evenodd"/><path d="M426.831 349.156 457.707 327.847 516.429 412.936 485.553 434.245Z" fill="#ff0576" fill-rule="evenodd"/></g></svg>